<?xml version="1.0" encoding="utf-8"?>
<!-- Generator: Adobe Illustrator 15.0.2, SVG Export Plug-In . SVG Version: 6.00 Build 0)  -->
<!DOCTYPE svg PUBLIC "-//W3C//DTD SVG 1.1//EN" "http://www.w3.org/Graphics/SVG/1.1/DTD/svg11.dtd">
<svg version="1.1" id="Layer_1" xmlns="http://www.w3.org/2000/svg" xmlns:xlink="http://www.w3.org/1999/xlink" x="0px" y="0px"
	 width="1288px" height="1468px" viewBox="0 0 1288 1468" enable-background="new 0 0 1288 1468" xml:space="preserve">
<g id="Layer_1_1_" display="none">
	<polygon display="inline" fill="#FFFFFF" stroke="#000000" stroke-miterlimit="10" points="608.091,782.19 501.721,782.127 
		448.592,689.976 501.833,597.889 608.203,597.953 661.331,690.104 	"/>
	
		<rect x="1018.5" y="712.881" display="inline" fill="#FFFFFF" stroke="#000000" stroke-miterlimit="10" width="184.252" height="184.252"/>
	<polygon display="inline" fill="#FFFFFF" stroke="#000000" stroke-miterlimit="10" points="767.842,874.341 661.471,874.277 
		608.342,782.127 661.583,690.04 767.953,690.104 821.081,782.254 	"/>
	<polygon display="inline" fill="#FFFFFF" stroke="#000000" stroke-miterlimit="10" points="767.842,690.04 661.471,689.977 
		608.342,597.826 661.583,505.739 767.953,505.803 821.081,597.954 	"/>
	<polygon display="inline" fill="#FFFFFF" stroke="#000000" stroke-miterlimit="10" points="927.092,782.19 820.721,782.127 
		767.592,689.976 820.833,597.889 927.203,597.953 980.331,690.104 	"/>
	<polygon display="inline" fill="#FFFFFF" stroke="#000000" stroke-miterlimit="10" points="927.092,966.491 820.721,966.428 
		767.592,874.277 820.833,782.189 927.203,782.254 980.331,874.404 	"/>
	<polygon display="inline" fill="#FFFFFF" stroke="#000000" stroke-miterlimit="10" points="767.842,1058.642 661.471,1058.578 
		608.342,966.428 661.583,874.34 767.953,874.404 821.081,966.555 	"/>
	<polygon display="inline" fill="#FFFFFF" stroke="#000000" stroke-miterlimit="10" points="608.092,966.491 501.721,966.428 
		448.592,874.277 501.833,782.189 608.203,782.254 661.331,874.404 	"/>
</g>
<g id="Layer_2" display="none">
	<g display="inline">
		<polygon fill="#FFFFFF" stroke="#000000" stroke-miterlimit="10" points="534.761,726.32 428.39,726.257 375.261,634.106 
			428.502,542.019 534.872,542.083 588,634.234 		"/>
		<circle fill="#FFFFFF" stroke="#000000" stroke-miterlimit="10" cx="481.63" cy="634.169" r="16.299"/>
	</g>
	<g display="inline">
		<polygon fill="#FFFFFF" stroke="#000000" stroke-miterlimit="10" points="534.761,910.621 428.39,910.559 375.261,818.407 
			428.502,726.32 534.872,726.384 588,818.535 		"/>
		<circle fill="#FFFFFF" stroke="#000000" stroke-miterlimit="10" cx="481.63" cy="818.471" r="16.299"/>
	</g>
	<g display="inline">
		<polygon fill="#FFFFFF" stroke="#000000" stroke-miterlimit="10" points="693.761,818.471 587.39,818.407 534.261,726.256 
			587.502,634.169 693.872,634.233 747,726.384 		"/>
		<circle fill="#FFFFFF" stroke="#000000" stroke-miterlimit="10" cx="640.63" cy="726.32" r="16.299"/>
	</g>
	<g display="inline">
		<polygon fill="#FFFFFF" stroke="#000000" stroke-miterlimit="10" points="693.761,634.17 587.39,634.106 534.261,541.956 
			587.502,449.869 693.872,449.933 747,542.083 		"/>
		<circle fill="#FFFFFF" stroke="#000000" stroke-miterlimit="10" cx="640.63" cy="542.019" r="16.299"/>
	</g>
	<g display="inline">
		<polygon fill="#FFFFFF" stroke="#000000" stroke-miterlimit="10" points="853.261,726.32 746.89,726.257 693.761,634.106 
			747.002,542.019 853.372,542.083 906.5,634.234 		"/>
		<circle fill="#FFFFFF" stroke="#000000" stroke-miterlimit="10" cx="800.13" cy="634.169" r="16.299"/>
	</g>
	<g display="inline">
		<polygon fill="#FFFFFF" stroke="#000000" stroke-miterlimit="10" points="853.261,910.621 746.89,910.558 693.761,818.406 
			747.002,726.32 853.372,726.384 906.5,818.535 		"/>
		<circle fill="#FFFFFF" stroke="#000000" stroke-miterlimit="10" cx="800.13" cy="818.471" r="16.299"/>
	</g>
	<g display="inline">
		<polygon fill="#FFFFFF" stroke="#000000" stroke-miterlimit="10" points="693.761,1002.771 587.39,1002.708 534.261,910.557 
			587.502,818.471 693.872,818.534 747,910.686 		"/>
		<circle fill="#FFFFFF" stroke="#000000" stroke-miterlimit="10" cx="640.63" cy="910.621" r="16.299"/>
	</g>
	<g display="inline">
		<polygon fill="#FFFFFF" stroke="#000000" stroke-miterlimit="10" points="1012.761,818.471 906.39,818.407 853.261,726.256 
			906.502,634.169 1012.872,634.233 1066,726.384 		"/>
		<circle fill="#FFFFFF" stroke="#000000" stroke-miterlimit="10" cx="959.63" cy="726.32" r="16.299"/>
	</g>
	<g display="inline">
		<polygon fill="#FFFFFF" stroke="#000000" stroke-miterlimit="10" points="1012.761,1002.771 906.39,1002.708 853.261,910.557 
			906.502,818.471 1012.872,818.534 1066,910.686 		"/>
		<circle fill="#FFFFFF" stroke="#000000" stroke-miterlimit="10" cx="959.63" cy="910.621" r="16.299"/>
	</g>
	<g display="inline">
		<polygon fill="#FFFFFF" stroke="#000000" stroke-miterlimit="10" points="853.261,1094.922 746.89,1094.858 693.761,1002.707 
			747.002,910.621 853.372,910.685 906.5,1002.836 		"/>
		<circle fill="#FFFFFF" stroke="#000000" stroke-miterlimit="10" cx="800.13" cy="1002.771" r="16.299"/>
	</g>
	<g display="inline">
		<polygon fill="#FFFFFF" stroke="#000000" stroke-miterlimit="10" points="693.761,1187.072 587.39,1187.009 534.261,1094.857 
			587.502,1002.771 693.872,1002.835 747,1094.986 		"/>
		<circle fill="#FFFFFF" stroke="#000000" stroke-miterlimit="10" cx="640.63" cy="1094.922" r="16.299"/>
	</g>
	<g display="inline">
		<polygon fill="#FFFFFF" stroke="#000000" stroke-miterlimit="10" points="534.761,1094.922 428.39,1094.858 375.261,1002.707 
			428.502,910.621 534.872,910.685 588,1002.836 		"/>
		<circle fill="#FFFFFF" stroke="#000000" stroke-miterlimit="10" cx="481.63" cy="1002.771" r="16.299"/>
	</g>
	<g display="inline">
		<polygon fill="#FFFFFF" stroke="#000000" stroke-miterlimit="10" points="376,1002.771 269.629,1002.708 216.5,910.557 
			269.741,818.471 376.111,818.534 429.239,910.686 		"/>
		<circle fill="#FFFFFF" stroke="#000000" stroke-miterlimit="10" cx="322.87" cy="910.621" r="16.299"/>
	</g>
	<g display="inline">
		<polygon fill="#FFFFFF" stroke="#000000" stroke-miterlimit="10" points="376,818.471 269.629,818.406 216.5,726.255 
			269.741,634.169 376.111,634.233 429.239,726.384 		"/>
		<circle fill="#FFFFFF" stroke="#000000" stroke-miterlimit="10" cx="322.87" cy="726.32" r="16.299"/>
	</g>
	<g display="inline">
		<polygon fill="#FFFFFF" stroke="#000000" stroke-miterlimit="10" points="376,634.17 269.629,634.106 216.5,541.956 
			269.741,449.869 376.111,449.933 429.239,542.083 		"/>
		<circle fill="#FFFFFF" stroke="#000000" stroke-miterlimit="10" cx="322.87" cy="542.019" r="16.299"/>
	</g>
	<g display="inline">
		<polygon fill="#FFFFFF" stroke="#000000" stroke-miterlimit="10" points="534.761,542.02 428.39,541.956 375.261,449.805 
			428.502,357.718 534.872,357.782 588,449.933 		"/>
		<circle fill="#FFFFFF" stroke="#000000" stroke-miterlimit="10" cx="481.63" cy="449.869" r="16.299"/>
	</g>
	<g display="inline">
		<polygon fill="#FFFFFF" stroke="#000000" stroke-miterlimit="10" points="693.761,449.869 587.39,449.806 534.261,357.655 
			587.502,265.568 693.872,265.632 747,357.783 		"/>
		<circle fill="#FFFFFF" stroke="#000000" stroke-miterlimit="10" cx="640.63" cy="357.718" r="16.299"/>
	</g>
	<g display="inline">
		<polygon fill="#FFFFFF" stroke="#000000" stroke-miterlimit="10" points="853.261,542.02 746.89,541.956 693.761,449.805 
			747.002,357.718 853.372,357.782 906.5,449.933 		"/>
		<circle fill="#FFFFFF" stroke="#000000" stroke-miterlimit="10" cx="800.13" cy="449.869" r="16.299"/>
	</g>
	<g display="inline">
		<polygon fill="#FFFFFF" stroke="#000000" stroke-miterlimit="10" points="1012.761,634.17 906.39,634.106 853.261,541.956 
			906.502,449.869 1012.872,449.933 1066,542.083 		"/>
		<circle fill="#FFFFFF" stroke="#000000" stroke-miterlimit="10" cx="959.63" cy="542.019" r="16.299"/>
	</g>
	<g display="inline">
		<polygon fill="#FFFFFF" stroke="#000000" stroke-miterlimit="10" points="1171.761,726.32 1065.39,726.257 1012.261,634.106 
			1065.502,542.019 1171.872,542.083 1225,634.234 		"/>
		<circle fill="#FFFFFF" stroke="#000000" stroke-miterlimit="10" cx="1118.63" cy="634.169" r="16.299"/>
	</g>
	<g display="inline">
		<polygon fill="#FFFFFF" stroke="#000000" stroke-miterlimit="10" points="1171.761,910.621 1065.39,910.559 1012.261,818.407 
			1065.502,726.32 1171.872,726.384 1225,818.535 		"/>
		<circle fill="#FFFFFF" stroke="#000000" stroke-miterlimit="10" cx="1118.63" cy="818.471" r="16.299"/>
	</g>
	<g display="inline">
		<polygon fill="#FFFFFF" stroke="#000000" stroke-miterlimit="10" points="1171.761,1094.922 1065.39,1094.858 1012.261,1002.707 
			1065.502,910.621 1171.872,910.685 1225,1002.836 		"/>
		<circle fill="#FFFFFF" stroke="#000000" stroke-miterlimit="10" cx="1118.63" cy="1002.771" r="16.299"/>
	</g>
	<g display="inline">
		<polygon fill="#FFFFFF" stroke="#000000" stroke-miterlimit="10" points="1012.761,1187.071 906.39,1187.008 853.261,1094.855 
			906.502,1002.771 1012.872,1002.834 1066,1094.985 		"/>
		<circle fill="#FFFFFF" stroke="#000000" stroke-miterlimit="10" cx="959.63" cy="1094.921" r="16.299"/>
	</g>
	<g display="inline">
		<polygon fill="#FFFFFF" stroke="#000000" stroke-miterlimit="10" points="853.261,1279.222 746.89,1279.158 693.761,1187.007 
			747.002,1094.921 853.372,1094.984 906.5,1187.136 		"/>
		<circle fill="#FFFFFF" stroke="#000000" stroke-miterlimit="10" cx="800.13" cy="1187.071" r="16.299"/>
	</g>
	<g display="inline">
		<polygon fill="#FFFFFF" stroke="#000000" stroke-miterlimit="10" points="693.761,1371.372 587.39,1371.309 534.261,1279.157 
			587.502,1187.071 693.872,1187.135 747,1279.286 		"/>
		<circle fill="#FFFFFF" stroke="#000000" stroke-miterlimit="10" cx="640.63" cy="1279.222" r="16.299"/>
	</g>
	<g display="inline">
		<polygon fill="#FFFFFF" stroke="#000000" stroke-miterlimit="10" points="534.761,1279.223 428.39,1279.159 375.261,1187.008 
			428.502,1094.922 534.872,1094.985 588,1187.137 		"/>
		<circle fill="#FFFFFF" stroke="#000000" stroke-miterlimit="10" cx="481.63" cy="1187.072" r="16.299"/>
	</g>
	<g display="inline">
		<polygon fill="#FFFFFF" stroke="#000000" stroke-miterlimit="10" points="376,1187.07 269.629,1187.007 216.5,1094.855 
			269.741,1002.77 376.111,1002.833 429.239,1094.984 		"/>
		<circle fill="#FFFFFF" stroke="#000000" stroke-miterlimit="10" cx="322.87" cy="1094.92" r="16.299"/>
	</g>
	<g display="inline">
		<polygon fill="#FFFFFF" stroke="#000000" stroke-miterlimit="10" points="216.461,1094.922 110.09,1094.858 56.961,1002.707 
			110.203,910.621 216.573,910.685 269.701,1002.836 		"/>
		<circle fill="#FFFFFF" stroke="#000000" stroke-miterlimit="10" cx="163.331" cy="1002.771" r="16.299"/>
	</g>
	<g display="inline">
		<polygon fill="#FFFFFF" stroke="#000000" stroke-miterlimit="10" points="216.461,910.621 110.09,910.558 56.961,818.406 
			110.203,726.32 216.573,726.384 269.701,818.535 		"/>
		<circle fill="#FFFFFF" stroke="#000000" stroke-miterlimit="10" cx="163.331" cy="818.471" r="16.299"/>
	</g>
	<g display="inline">
		<polygon fill="#FFFFFF" stroke="#000000" stroke-miterlimit="10" points="216.461,726.319 110.09,726.256 56.961,634.104 
			110.203,542.018 216.573,542.082 269.701,634.233 		"/>
		<circle fill="#FFFFFF" stroke="#000000" stroke-miterlimit="10" cx="163.331" cy="634.169" r="16.299"/>
	</g>
	<g display="inline">
		<polygon fill="#FFFFFF" stroke="#000000" stroke-miterlimit="10" points="216.461,542.02 110.09,541.956 56.961,449.805 
			110.203,357.718 216.573,357.782 269.701,449.933 		"/>
		<circle fill="#FFFFFF" stroke="#000000" stroke-miterlimit="10" cx="163.331" cy="449.869" r="16.299"/>
	</g>
	<g display="inline">
		<polygon fill="#FFFFFF" stroke="#000000" stroke-miterlimit="10" points="376,449.869 269.629,449.806 216.5,357.655 
			269.741,265.568 376.111,265.632 429.239,357.783 		"/>
		<circle fill="#FFFFFF" stroke="#000000" stroke-miterlimit="10" cx="322.87" cy="357.718" r="16.299"/>
	</g>
	<g display="inline">
		<polygon fill="#FFFFFF" stroke="#000000" stroke-miterlimit="10" points="534.761,357.718 428.39,357.655 375.261,265.504 
			428.502,173.417 534.872,173.481 588,265.632 		"/>
		<circle fill="#FFFFFF" stroke="#000000" stroke-miterlimit="10" cx="481.63" cy="265.567" r="16.299"/>
	</g>
	<g display="inline">
		<polygon fill="#FFFFFF" stroke="#000000" stroke-miterlimit="10" points="693.761,265.567 587.39,265.504 534.261,173.353 
			587.502,81.266 693.872,81.33 747,173.481 		"/>
		<circle fill="#FFFFFF" stroke="#000000" stroke-miterlimit="10" cx="640.63" cy="173.417" r="16.299"/>
	</g>
	<g display="inline">
		<polygon fill="#FFFFFF" stroke="#000000" stroke-miterlimit="10" points="853.261,357.718 746.89,357.654 693.761,265.503 
			747.002,173.417 853.372,173.48 906.5,265.631 		"/>
		<circle fill="#FFFFFF" stroke="#000000" stroke-miterlimit="10" cx="800.13" cy="265.567" r="16.299"/>
	</g>
	<g display="inline">
		<polygon fill="#FFFFFF" stroke="#000000" stroke-miterlimit="10" points="1012.761,449.868 906.39,449.805 853.261,357.654 
			906.502,265.567 1012.872,265.631 1066,357.782 		"/>
		<circle fill="#FFFFFF" stroke="#000000" stroke-miterlimit="10" cx="959.63" cy="357.717" r="16.299"/>
	</g>
	<g display="inline">
		<polygon fill="#FFFFFF" stroke="#000000" stroke-miterlimit="10" points="1171.761,542.019 1065.39,541.955 1012.261,449.804 
			1065.502,357.717 1171.872,357.781 1225,449.932 		"/>
		<circle fill="#FFFFFF" stroke="#000000" stroke-miterlimit="10" cx="1118.63" cy="449.868" r="16.299"/>
	</g>
</g>
<g id="Cut__x28_old_x29_" display="none">
	<polygon display="inline" fill="none" stroke="#000000" stroke-miterlimit="10" points="1244,374.017 1247.419,1072.701 
		644.049,1425.005 37.261,1078.623 33.842,379.938 637.212,27.635 	"/>
	<polygon display="inline" fill="none" stroke="#000000" stroke-miterlimit="10" points="693.761,818.406 587.39,818.407 
		534.261,726.256 587.39,634.106 693.761,634.17 747.002,726.32 	"/>
</g>
<g id="Outer_Cut" display="none">
	<polygon display="inline" fill="none" stroke="#00AEEF" stroke-miterlimit="10" points="1243.699,1074.246 641.954,1422.66 
		39.349,1075.74 38.485,380.408 640.229,31.994 1242.835,378.913 	"/>
	
		<line display="inline" fill="none" stroke="#00AEEF" stroke-miterlimit="10" x1="1242.804" y1="380.335" x2="-232.313" y2="380.335"/>
	
		<line display="inline" fill="none" stroke="#00AEEF" stroke-miterlimit="10" x1="1242.804" y1="380.335" x2="1242.804" y2="1324.759"/>
	
		<line display="inline" fill="none" stroke="#00AEEF" stroke-miterlimit="10" x1="38.485" y1="380.408" x2="1241.688" y2="1073.996"/>
	
		<line display="inline" fill="none" stroke="#00AEEF" stroke-miterlimit="10" x1="39.349" y1="1075.74" x2="1242.835" y2="378.913"/>
</g>
<g id="Divides">
	<line fill="none" stroke="#BCBEC0" stroke-miterlimit="10" x1="764.845" y1="726.323" x2="853.372" y2="726.381"/>
	<line fill="none" stroke="#BCBEC0" stroke-miterlimit="10" x1="702.473" y1="833.457" x2="746.89" y2="910.558"/>
	<line fill="none" stroke="#BCBEC0" stroke-miterlimit="10" x1="578.549" y1="833.862" x2="534.261" y2="910.557"/>
	<line fill="none" stroke="#BCBEC0" stroke-miterlimit="10" x1="516.415" y1="726.323" x2="429.239" y2="726.381"/>
	<line fill="none" stroke="#BCBEC0" stroke-miterlimit="10" x1="579.688" y1="616.859" x2="536.953" y2="542.02"/>
	<line fill="none" stroke="#BCBEC0" stroke-miterlimit="10" x1="702.581" y1="618.854" x2="747" y2="542.083"/>
	<line fill="none" stroke="#BCBEC0" stroke-miterlimit="10" x1="428.502" y1="542.019" x2="534.761" y2="542.02"/>
	<line fill="none" stroke="#BCBEC0" stroke-miterlimit="10" x1="747" y1="542.083" x2="853.372" y2="542.083"/>
	<line fill="none" stroke="#BCBEC0" stroke-miterlimit="10" x1="746.89" y1="910.558" x2="853.261" y2="910.557"/>
	<line fill="none" stroke="#BCBEC0" stroke-miterlimit="10" x1="534.261" y1="910.557" x2="429.239" y2="910.557"/>
	<line fill="none" stroke="#BCBEC0" stroke-miterlimit="10" x1="534.261" y1="910.557" x2="587.502" y2="1002.771"/>
	<line fill="none" stroke="#BCBEC0" stroke-miterlimit="10" x1="587.502" y1="1002.771" x2="693.872" y2="1002.835"/>
	<line fill="none" stroke="#BCBEC0" stroke-miterlimit="10" x1="693.872" y1="1002.835" x2="746.89" y2="910.558"/>
	<line fill="none" stroke="#BCBEC0" stroke-miterlimit="10" x1="429.239" y1="910.557" x2="376" y2="818.471"/>
	<line fill="none" stroke="#BCBEC0" stroke-miterlimit="10" x1="376" y1="818.471" x2="429.239" y2="726.384"/>
	<line fill="none" stroke="#BCBEC0" stroke-miterlimit="10" x1="429.239" y1="727.5" x2="376" y2="634.583"/>
	<line fill="none" stroke="#BCBEC0" stroke-miterlimit="10" x1="376" y1="634.17" x2="428.502" y2="542.019"/>
	<line fill="none" stroke="#BCBEC0" stroke-miterlimit="10" x1="534.761" y1="542.02" x2="588" y2="449.933"/>
	<line fill="none" stroke="#BCBEC0" stroke-miterlimit="10" x1="588" y1="449.933" x2="693.872" y2="449.933"/>
	<line fill="none" stroke="#BCBEC0" stroke-miterlimit="10" x1="693.872" y1="449.933" x2="747" y2="542.833"/>
	<line fill="none" stroke="#BCBEC0" stroke-miterlimit="10" x1="693.872" y1="449.933" x2="747" y2="357.783"/>
	<line fill="none" stroke="#BCBEC0" stroke-miterlimit="10" x1="747" y1="357.783" x2="853.372" y2="357.782"/>
	<line fill="none" stroke="#BCBEC0" stroke-miterlimit="10" x1="853.372" y1="542.083" x2="906.39" y2="449.805"/>
	<line fill="none" stroke="#BCBEC0" stroke-miterlimit="10" x1="906.39" y1="449.805" x2="853.372" y2="357.782"/>
	<line fill="none" stroke="#BCBEC0" stroke-miterlimit="10" x1="906.39" y1="449.805" x2="1012.261" y2="449.805"/>
	<line fill="none" stroke="#BCBEC0" stroke-miterlimit="10" x1="853.372" y1="726.384" x2="906.39" y2="818.407"/>
	<line fill="none" stroke="#BCBEC0" stroke-miterlimit="10" x1="906.39" y1="818.407" x2="853.261" y2="910.557"/>
	<line fill="none" stroke="#BCBEC0" stroke-miterlimit="10" x1="905.875" y1="818.407" x2="1012.261" y2="818.407"/>
	<line fill="none" stroke="#BCBEC0" stroke-miterlimit="10" x1="1011.75" y1="818.407" x2="1065.39" y2="726.257"/>
	<line fill="none" stroke="#BCBEC0" stroke-miterlimit="10" x1="1011.75" y1="818.407" x2="1065.39" y2="910.559"/>
	<line fill="none" stroke="#BCBEC0" stroke-miterlimit="10" x1="1065.39" y1="910.539" x2="1226.419" y2="910.641"/>
	<line fill="none" stroke="#BCBEC0" stroke-miterlimit="10" x1="693.872" y1="1002.835" x2="746.89" y2="1094.858"/>
	<line fill="none" stroke="#BCBEC0" stroke-miterlimit="10" x1="746.89" y1="1094.858" x2="693" y2="1187.07"/>
	<line fill="none" stroke="#BCBEC0" stroke-miterlimit="10" x1="693" y1="1187.07" x2="587.502" y2="1187.071"/>
	<line fill="none" stroke="#BCBEC0" stroke-miterlimit="10" x1="587.502" y1="1187.071" x2="534.761" y2="1094.922"/>
	<line fill="none" stroke="#BCBEC0" stroke-miterlimit="10" x1="534.761" y1="1094.922" x2="587.502" y2="1003.697"/>
	<line fill="none" stroke="#BCBEC0" stroke-miterlimit="10" x1="746.89" y1="1094.858" x2="853.372" y2="1094.984"/>
	<line fill="none" stroke="#BCBEC0" stroke-miterlimit="10" x1="853.372" y1="1094.984" x2="906.39" y2="1002.708"/>
	<line fill="none" stroke="#BCBEC0" stroke-miterlimit="10" x1="853.261" y1="910.557" x2="906.39" y2="1002.708"/>
	<line fill="none" stroke="#BCBEC0" stroke-miterlimit="10" x1="906.39" y1="1002.708" x2="1012.261" y2="1002.707"/>
	<line fill="none" stroke="#BCBEC0" stroke-miterlimit="10" x1="1012.261" y1="1002.707" x2="1065.39" y2="910.559"/>
	<line fill="none" stroke="#BCBEC0" stroke-miterlimit="10" x1="1012.261" y1="1002.707" x2="1094.043" y2="1143.139"/>
	<line fill="none" stroke="#BCBEC0" stroke-miterlimit="10" x1="853.372" y1="1094.984" x2="932.333" y2="1232.039"/>
	<line fill="none" stroke="#BCBEC0" stroke-miterlimit="10" x1="693" y1="1187.07" x2="774.106" y2="1325.667"/>
	<line fill="none" stroke="#BCBEC0" stroke-miterlimit="10" x1="534.761" y1="1094.922" x2="429.239" y2="1094.984"/>
	<line fill="none" stroke="#BCBEC0" stroke-miterlimit="10" x1="376" y1="1002.771" x2="430" y2="1094.984"/>
	<line fill="none" stroke="#BCBEC0" stroke-miterlimit="10" x1="429.239" y1="910.557" x2="376" y2="1002.771"/>
	<line fill="none" stroke="#BCBEC0" stroke-miterlimit="10" x1="376" y1="1002.771" x2="269.629" y2="1002.771"/>
	<line fill="none" stroke="#BCBEC0" stroke-miterlimit="10" x1="853.372" y1="726.384" x2="906.5" y2="634.234"/>
	<line fill="none" stroke="#BCBEC0" stroke-miterlimit="10" x1="906.5" y1="634.234" x2="853.372" y2="542.083"/>
	<line fill="none" stroke="#BCBEC0" stroke-miterlimit="10" x1="906.5" y1="634.234" x2="1012.261" y2="634.234"/>
	<line fill="none" stroke="#BCBEC0" stroke-miterlimit="10" x1="1012.261" y1="634.234" x2="1065.39" y2="726.257"/>
	<line fill="none" stroke="#BCBEC0" stroke-miterlimit="10" x1="1065.39" y1="726.257" x2="1226.419" y2="726.257"/>
	<line fill="none" stroke="#BCBEC0" stroke-miterlimit="10" x1="1065.39" y1="541.955" x2="1226.419" y2="541.955"/>
	<line fill="none" stroke="#BCBEC0" stroke-miterlimit="10" x1="1012.261" y1="634.234" x2="1065.39" y2="541.955"/>
	<line fill="none" stroke="#BCBEC0" stroke-miterlimit="10" x1="1012.261" y1="449.805" x2="1065.39" y2="541.955"/>
	<line fill="none" stroke="#BCBEC0" stroke-miterlimit="10" x1="747" y1="357.783" x2="693.761" y2="265.503"/>
	<line fill="none" stroke="#BCBEC0" stroke-miterlimit="10" x1="693.761" y1="265.503" x2="587.502" y2="265.568"/>
	<line fill="none" stroke="#BCBEC0" stroke-miterlimit="10" x1="587.502" y1="265.568" x2="534.261" y2="357.655"/>
	<line fill="none" stroke="#BCBEC0" stroke-miterlimit="10" x1="534.261" y1="357.655" x2="588" y2="449.933"/>
	<line fill="none" stroke="#BCBEC0" stroke-miterlimit="10" x1="534.261" y1="357.655" x2="429.239" y2="357.783"/>
	<line fill="none" stroke="#BCBEC0" stroke-miterlimit="10" x1="429.239" y1="357.783" x2="375.261" y2="449.805"/>
	<line fill="none" stroke="#BCBEC0" stroke-miterlimit="10" x1="375.261" y1="449.805" x2="428.502" y2="542.019"/>
	<line fill="none" stroke="#BCBEC0" stroke-miterlimit="10" x1="374.25" y1="449.933" x2="269.629" y2="449.806"/>
	<line fill="none" stroke="#BCBEC0" stroke-miterlimit="10" x1="269.629" y1="449.806" x2="189.953" y2="311.611"/>
	<line fill="none" stroke="#BCBEC0" stroke-miterlimit="10" x1="428.418" y1="357.655" x2="349.449" y2="220.686"/>
	<line fill="none" stroke="#BCBEC0" stroke-miterlimit="10" x1="587.502" y1="265.503" x2="508.333" y2="128.189"/>
	<line fill="none" stroke="#BCBEC0" stroke-miterlimit="10" x1="216.461" y1="542.02" x2="269.629" y2="449.806"/>
	<line fill="none" stroke="#BCBEC0" stroke-miterlimit="10" x1="216.461" y1="542.02" x2="269.741" y2="634.169"/>
	<line fill="none" stroke="#BCBEC0" stroke-miterlimit="10" x1="216.52" y1="542.02" x2="56.238" y2="542.02"/>
	<line fill="none" stroke="#BCBEC0" stroke-miterlimit="10" x1="269.741" y1="634.169" x2="216.5" y2="726.255"/>
	<line fill="none" stroke="#BCBEC0" stroke-miterlimit="10" x1="269.741" y1="634.169" x2="376" y2="634.17"/>
	<line fill="none" stroke="#BCBEC0" stroke-miterlimit="10" x1="217.295" y1="726.255" x2="57.013" y2="726.255"/>
	<line fill="none" stroke="#BCBEC0" stroke-miterlimit="10" x1="216.481" y1="726.354" x2="269.761" y2="818.502"/>
	<line fill="none" stroke="#BCBEC0" stroke-miterlimit="10" x1="269.761" y1="818.502" x2="216.52" y2="910.589"/>
	<line fill="none" stroke="#BCBEC0" stroke-miterlimit="10" x1="216.538" y1="910.588" x2="56.256" y2="910.588"/>
	<line fill="none" stroke="#BCBEC0" stroke-miterlimit="10" x1="216.52" y1="910.589" x2="269.629" y2="1002.771"/>
	<line fill="none" stroke="#BCBEC0" stroke-miterlimit="10" x1="269.629" y1="1002.771" x2="189.896" y2="1140.965"/>
	<line fill="none" stroke="#BCBEC0" stroke-miterlimit="10" x1="430" y1="1094.92" x2="349.563" y2="1234.333"/>
	<line fill="none" stroke="#BCBEC0" stroke-miterlimit="10" x1="587.502" y1="1186.601" x2="507.584" y2="1325.114"/>
	<line fill="none" stroke="#BCBEC0" stroke-miterlimit="10" x1="1092.139" y1="311.234" x2="1011.75" y2="450.564"/>
	<line fill="none" stroke="#BCBEC0" stroke-miterlimit="10" x1="933.334" y1="219" x2="853.261" y2="357.783"/>
	<line fill="none" stroke="#BCBEC0" stroke-miterlimit="10" x1="774" y1="126.432" x2="693.761" y2="265.503"/>
	<line fill="none" stroke="#BCBEC0" stroke-miterlimit="10" x1="269.761" y1="818.502" x2="376" y2="818.502"/>
</g>
<g id="Layer_4" display="none">
	
		<line display="inline" fill="none" stroke="#EE2A7B" stroke-miterlimit="10" x1="163.331" y1="449.869" x2="640.631" y2="173.417"/>
	
		<line display="inline" fill="none" stroke="#EE2A7B" stroke-miterlimit="10" x1="163.331" y1="1002.771" x2="1118.631" y2="449.461"/>
	
		<line display="inline" fill="none" stroke="#EE2A7B" stroke-miterlimit="10" x1="640.981" y1="1279.224" x2="1118.281" y2="1002.771"/>
	
		<line display="inline" fill="none" stroke="#EE2A7B" stroke-miterlimit="10" x1="163.331" y1="1002.771" x2="640.981" y2="1279.224"/>
	
		<line display="inline" fill="none" stroke="#EE2A7B" stroke-miterlimit="10" x1="163.509" y1="449.869" x2="1118.456" y2="1002.568"/>
	
		<line display="inline" fill="none" stroke="#EE2A7B" stroke-miterlimit="10" x1="640.806" y1="173.415" x2="1118.456" y2="449.867"/>
	
		<line display="inline" fill="none" stroke="#EE2A7B" stroke-miterlimit="10" x1="163.331" y1="449.869" x2="163.331" y2="1002.771"/>
	
		<line display="inline" fill="none" stroke="#EE2A7B" stroke-miterlimit="10" x1="1118.631" y1="449.665" x2="1118.631" y2="1002.568"/>
	
		<line display="inline" fill="none" stroke="#EE2A7B" stroke-miterlimit="10" x1="640.631" y1="173.417" x2="640.631" y2="1278.114"/>
	
		<line display="inline" fill="none" stroke="#EE2A7B" stroke-miterlimit="10" x1="800.131" y1="265.567" x2="800.131" y2="1187.072"/>
	
		<line display="inline" fill="none" stroke="#EE2A7B" stroke-miterlimit="10" x1="958.334" y1="357.718" x2="958.334" y2="1094.922"/>
	<line display="inline" fill="none" stroke="#EE2A7B" stroke-miterlimit="10" x1="481.63" y1="265.567" x2="481.63" y2="1187.072"/>
	<line display="inline" fill="none" stroke="#EE2A7B" stroke-miterlimit="10" x1="322.87" y1="357.718" x2="322.87" y2="1094.922"/>
	
		<line display="inline" fill="none" stroke="#EE2A7B" stroke-miterlimit="10" x1="322.657" y1="357.718" x2="1119.078" y2="818.667"/>
	
		<line display="inline" fill="none" stroke="#EE2A7B" stroke-miterlimit="10" x1="481.631" y1="265.567" x2="1118.322" y2="634.068"/>
	
		<line display="inline" fill="none" stroke="#EE2A7B" stroke-miterlimit="10" x1="482.222" y1="1187.072" x2="1118.28" y2="818.668"/>
	
		<line display="inline" fill="none" stroke="#EE2A7B" stroke-miterlimit="10" x1="323.018" y1="1094.922" x2="1118.006" y2="634.466"/>
	
		<line display="inline" fill="none" stroke="#EE2A7B" stroke-miterlimit="10" x1="163.509" y1="818.472" x2="959.011" y2="357.718"/>
	<line display="inline" fill="none" stroke="#EE2A7B" stroke-miterlimit="10" x1="163.602" y1="634.071" x2="799.66" y2="265.667"/>
	
		<line display="inline" fill="none" stroke="#EE2A7B" stroke-miterlimit="10" x1="163.331" y1="634.466" x2="958.334" y2="1094.594"/>
	
		<line display="inline" fill="none" stroke="#EE2A7B" stroke-miterlimit="10" x1="163.285" y1="818.318" x2="799.977" y2="1186.819"/>
</g>
<g id="LED_Holes">
	<g>
		<line fill="none" stroke="#000000" stroke-miterlimit="10" x1="633.545" y1="173.417" x2="647.717" y2="173.417"/>
		<line fill="none" stroke="#000000" stroke-miterlimit="10" x1="640.631" y1="180.502" x2="640.631" y2="166.331"/>
	</g>
	<g>
		<line fill="none" stroke="#000000" stroke-miterlimit="10" x1="1111.545" y1="449.868" x2="1125.717" y2="449.868"/>
		<line fill="none" stroke="#000000" stroke-miterlimit="10" x1="1118.631" y1="456.954" x2="1118.631" y2="442.782"/>
	</g>
	<g>
		<line fill="none" stroke="#000000" stroke-miterlimit="10" x1="1111.545" y1="1002.771" x2="1125.717" y2="1002.771"/>
		<line fill="none" stroke="#000000" stroke-miterlimit="10" x1="1118.631" y1="1009.857" x2="1118.631" y2="995.686"/>
	</g>
	<g>
		<line fill="none" stroke="#000000" stroke-miterlimit="10" x1="633.545" y1="1279.221" x2="647.717" y2="1279.221"/>
		<line fill="none" stroke="#000000" stroke-miterlimit="10" x1="640.631" y1="1286.307" x2="640.631" y2="1272.135"/>
	</g>
	<g>
		<line fill="none" stroke="#000000" stroke-miterlimit="10" x1="156.245" y1="1002.771" x2="170.417" y2="1002.771"/>
		<line fill="none" stroke="#000000" stroke-miterlimit="10" x1="163.331" y1="1009.857" x2="163.331" y2="995.686"/>
	</g>
	<g>
		<line fill="none" stroke="#000000" stroke-miterlimit="10" x1="156.245" y1="449.869" x2="170.417" y2="449.869"/>
		<line fill="none" stroke="#000000" stroke-miterlimit="10" x1="163.331" y1="456.955" x2="163.331" y2="442.783"/>
	</g>
	<g>
		<line fill="none" stroke="#000000" stroke-miterlimit="10" x1="633.545" y1="1095.168" x2="647.717" y2="1095.168"/>
		<line fill="none" stroke="#000000" stroke-miterlimit="10" x1="640.631" y1="1102.254" x2="640.631" y2="1088.082"/>
	</g>
	<g>
		<line fill="none" stroke="#000000" stroke-miterlimit="10" x1="633.545" y1="910.721" x2="647.717" y2="910.721"/>
		<line fill="none" stroke="#000000" stroke-miterlimit="10" x1="640.631" y1="917.807" x2="640.631" y2="903.635"/>
	</g>
	<g>
		<line fill="none" stroke="#000000" stroke-miterlimit="10" x1="633.896" y1="542" x2="648.068" y2="542"/>
		<line fill="none" stroke="#000000" stroke-miterlimit="10" x1="640.982" y1="549.086" x2="640.982" y2="534.914"/>
	</g>
	<g>
		<line fill="none" stroke="#000000" stroke-miterlimit="10" x1="633.72" y1="357.718" x2="647.892" y2="357.718"/>
		<line fill="none" stroke="#000000" stroke-miterlimit="10" x1="640.806" y1="364.804" x2="640.806" y2="350.632"/>
	</g>
	<g>
		<line fill="none" stroke="#000000" stroke-miterlimit="10" x1="793.045" y1="265.567" x2="807.217" y2="265.567"/>
		<line fill="none" stroke="#000000" stroke-miterlimit="10" x1="800.131" y1="272.653" x2="800.131" y2="258.481"/>
	</g>
	<g>
		<line fill="none" stroke="#000000" stroke-miterlimit="10" x1="793.045" y1="449.869" x2="807.217" y2="449.869"/>
		<line fill="none" stroke="#000000" stroke-miterlimit="10" x1="800.131" y1="456.955" x2="800.131" y2="442.783"/>
	</g>
	<g>
		<line fill="none" stroke="#000000" stroke-miterlimit="10" x1="792.891" y1="634.068" x2="807.063" y2="634.068"/>
		<line fill="none" stroke="#000000" stroke-miterlimit="10" x1="799.977" y1="641.154" x2="799.977" y2="626.982"/>
	</g>
	<g>
		<line fill="none" stroke="#000000" stroke-miterlimit="10" x1="792.891" y1="818.318" x2="807.063" y2="818.318"/>
		<line fill="none" stroke="#000000" stroke-miterlimit="10" x1="799.977" y1="825.404" x2="799.977" y2="811.232"/>
	</g>
	<g>
		<line fill="none" stroke="#000000" stroke-miterlimit="10" x1="792.891" y1="1002.87" x2="807.063" y2="1002.87"/>
		<line fill="none" stroke="#000000" stroke-miterlimit="10" x1="799.977" y1="1009.956" x2="799.977" y2="995.784"/>
	</g>
	<g>
		<line fill="none" stroke="#000000" stroke-miterlimit="10" x1="792.891" y1="1186.818" x2="807.063" y2="1186.818"/>
		<line fill="none" stroke="#000000" stroke-miterlimit="10" x1="799.977" y1="1193.904" x2="799.977" y2="1179.732"/>
	</g>
	<g>
		<line fill="none" stroke="#000000" stroke-miterlimit="10" x1="951.248" y1="1094.922" x2="965.42" y2="1094.922"/>
		<line fill="none" stroke="#000000" stroke-miterlimit="10" x1="958.334" y1="1102.008" x2="958.334" y2="1087.836"/>
	</g>
	<g>
		<line fill="none" stroke="#000000" stroke-miterlimit="10" x1="952.42" y1="910.5" x2="966.592" y2="910.5"/>
		<line fill="none" stroke="#000000" stroke-miterlimit="10" x1="959.506" y1="917.586" x2="959.506" y2="903.414"/>
	</g>
	<g>
		<line fill="none" stroke="#000000" stroke-miterlimit="10" x1="951.925" y1="726.219" x2="966.097" y2="726.219"/>
		<line fill="none" stroke="#000000" stroke-miterlimit="10" x1="959.011" y1="733.305" x2="959.011" y2="719.133"/>
	</g>
	<g>
		<line fill="none" stroke="#000000" stroke-miterlimit="10" x1="951.248" y1="541.875" x2="965.42" y2="541.875"/>
		<line fill="none" stroke="#000000" stroke-miterlimit="10" x1="958.334" y1="548.961" x2="958.334" y2="534.789"/>
	</g>
	<g>
		<line fill="none" stroke="#000000" stroke-miterlimit="10" x1="951.248" y1="357.718" x2="965.42" y2="357.718"/>
		<line fill="none" stroke="#000000" stroke-miterlimit="10" x1="958.334" y1="364.804" x2="958.334" y2="350.632"/>
	</g>
	<g>
		<line fill="none" stroke="#000000" stroke-miterlimit="10" x1="1111.545" y1="634.068" x2="1125.717" y2="634.068"/>
		<line fill="none" stroke="#000000" stroke-miterlimit="10" x1="1118.631" y1="641.154" x2="1118.631" y2="626.982"/>
	</g>
	<g>
		<line fill="none" stroke="#000000" stroke-miterlimit="10" x1="1111.37" y1="818.125" x2="1125.542" y2="818.125"/>
		<line fill="none" stroke="#000000" stroke-miterlimit="10" x1="1118.456" y1="825.211" x2="1118.456" y2="811.039"/>
	</g>
	<g>
		<line fill="none" stroke="#000000" stroke-miterlimit="10" x1="474.544" y1="1187.072" x2="488.716" y2="1187.072"/>
		<line fill="none" stroke="#000000" stroke-miterlimit="10" x1="481.63" y1="1194.158" x2="481.63" y2="1179.986"/>
	</g>
	<g>
		<line fill="none" stroke="#000000" stroke-miterlimit="10" x1="474.795" y1="1002.87" x2="488.967" y2="1002.87"/>
		<line fill="none" stroke="#000000" stroke-miterlimit="10" x1="481.881" y1="1009.956" x2="481.881" y2="995.784"/>
	</g>
	<g>
		<line fill="none" stroke="#000000" stroke-miterlimit="10" x1="474.544" y1="818.668" x2="488.716" y2="818.668"/>
		<line fill="none" stroke="#000000" stroke-miterlimit="10" x1="481.63" y1="825.754" x2="481.63" y2="811.582"/>
	</g>
	<g>
		<line fill="none" stroke="#000000" stroke-miterlimit="10" x1="474.544" y1="634.071" x2="488.716" y2="634.071"/>
		<line fill="none" stroke="#000000" stroke-miterlimit="10" x1="481.63" y1="641.157" x2="481.63" y2="626.985"/>
	</g>
	<g>
		<line fill="none" stroke="#000000" stroke-miterlimit="10" x1="474.545" y1="449.869" x2="488.717" y2="449.869"/>
		<line fill="none" stroke="#000000" stroke-miterlimit="10" x1="481.631" y1="456.955" x2="481.631" y2="442.783"/>
	</g>
	<g>
		<line fill="none" stroke="#000000" stroke-miterlimit="10" x1="474.544" y1="265.567" x2="488.716" y2="265.567"/>
		<line fill="none" stroke="#000000" stroke-miterlimit="10" x1="481.63" y1="272.653" x2="481.63" y2="258.481"/>
	</g>
	<g>
		<line fill="none" stroke="#000000" stroke-miterlimit="10" x1="315.784" y1="357.718" x2="329.956" y2="357.718"/>
		<line fill="none" stroke="#000000" stroke-miterlimit="10" x1="322.87" y1="364.804" x2="322.87" y2="350.632"/>
	</g>
	<g>
		<line fill="none" stroke="#000000" stroke-miterlimit="10" x1="315.784" y1="542" x2="329.956" y2="542"/>
		<line fill="none" stroke="#000000" stroke-miterlimit="10" x1="322.87" y1="549.086" x2="322.87" y2="534.914"/>
	</g>
	<g>
		<line fill="none" stroke="#000000" stroke-miterlimit="10" x1="315.571" y1="726.625" x2="329.743" y2="726.625"/>
		<line fill="none" stroke="#000000" stroke-miterlimit="10" x1="322.657" y1="733.711" x2="322.657" y2="719.539"/>
	</g>
	<g>
		<line fill="none" stroke="#000000" stroke-miterlimit="10" x1="315.784" y1="910.438" x2="329.956" y2="910.438"/>
		<line fill="none" stroke="#000000" stroke-miterlimit="10" x1="322.87" y1="917.523" x2="322.87" y2="903.352"/>
	</g>
	<g>
		<line fill="none" stroke="#000000" stroke-miterlimit="10" x1="315.784" y1="1094.922" x2="329.956" y2="1094.922"/>
		<line fill="none" stroke="#000000" stroke-miterlimit="10" x1="322.87" y1="1102.008" x2="322.87" y2="1087.836"/>
	</g>
	<g>
		<line fill="none" stroke="#000000" stroke-miterlimit="10" x1="156.199" y1="818.472" x2="170.371" y2="818.472"/>
		<line fill="none" stroke="#000000" stroke-miterlimit="10" x1="163.285" y1="825.558" x2="163.285" y2="811.386"/>
	</g>
	<g>
		<line fill="none" stroke="#000000" stroke-miterlimit="10" x1="156.245" y1="634.466" x2="170.417" y2="634.466"/>
		<line fill="none" stroke="#000000" stroke-miterlimit="10" x1="163.331" y1="641.552" x2="163.331" y2="627.38"/>
	</g>
</g>
<g id="Cut">
	<path fill="none" d="M1961.25,365.304"/>
	<polygon fill="none" stroke="#000000" stroke-miterlimit="10" points="1244.93,1074.234 642.001,1422.337 39.071,1074.234 
		39.071,378.033 642.001,29.93 1244.93,378.033 	"/>
	<line fill="none" stroke="#000000" stroke-miterlimit="10" x1="534.261" y1="726.256" x2="587.502" y2="818.471"/>
	<line fill="none" stroke="#000000" stroke-miterlimit="10" x1="587.502" y1="818.471" x2="693.761" y2="818.471"/>
	<line fill="none" stroke="#000000" stroke-miterlimit="10" x1="693.761" y1="818.471" x2="747" y2="726.384"/>
	<line fill="none" stroke="#000000" stroke-miterlimit="10" x1="747" y1="726.384" x2="693.761" y2="634.106"/>
	<line fill="none" stroke="#000000" stroke-miterlimit="10" x1="693.761" y1="634.106" x2="587.39" y2="634.106"/>
	<line fill="none" stroke="#000000" stroke-miterlimit="10" x1="587.39" y1="634.106" x2="534.261" y2="726.256"/>
</g>
<g id="Template" display="none">
	<g display="inline">
		<path fill="#FFFFFF" d="M292.387,960.858c-1.608-0.001-3.093-0.859-3.896-2.253l-53.129-92.15c-0.803-1.395-0.802-3.108,0.003-4.5
			l53.241-92.086c0.804-1.393,2.289-2.248,3.896-2.248c0.001,0,106.373,0.063,106.373,0.063c1.608,0.001,3.093,0.859,3.896,2.252
			l53.128,92.151c0.803,1.394,0.802,3.108-0.003,4.5l-53.238,92.086c-0.805,1.393-2.29,2.248-3.896,2.248
			C398.76,960.922,292.387,960.858,292.387,960.858z"/>
		<path fill="none" stroke="#000000" stroke-miterlimit="10" d="M292.387,960.858c-1.608-0.001-3.093-0.859-3.896-2.253
			l-53.129-92.15c-0.803-1.395-0.802-3.108,0.003-4.5l53.241-92.086c0.804-1.393,2.289-2.248,3.896-2.248
			c0.001,0,106.373,0.063,106.373,0.063c1.608,0.001,3.093,0.859,3.896,2.252l53.128,92.151c0.803,1.394,0.802,3.108-0.003,4.5
			l-53.238,92.086c-0.805,1.393-2.29,2.248-3.896,2.248C398.76,960.922,292.387,960.858,292.387,960.858z"/>
	</g>
</g>
<g id="Layer_10">
	<text transform="matrix(0.866 -0.5 0.5 0.866 640.25 524.3501)" font-family="'MyriadPro-Regular'" font-size="36">1</text>
	<text transform="matrix(0.866 -0.5 0.5 0.866 799.9756 618.8545)" font-family="'MyriadPro-Regular'" font-size="36">2</text>
	<text transform="matrix(0.866 -0.5 0.5 0.866 799.9746 806.7715)" font-family="'MyriadPro-Regular'" font-size="36">3</text>
	<text transform="matrix(0.866 -0.5 0.5 0.866 633.543 894.7236)" font-family="'MyriadPro-Regular'" font-size="36">4</text>
	<text transform="matrix(0.866 -0.5 0.5 0.866 481.6299 800.748)" font-family="'MyriadPro-Regular'" font-size="36">5</text>
	<text transform="matrix(0.866 -0.5 0.5 0.866 474.7939 618.8545)" font-family="'MyriadPro-Regular'" font-size="36">6</text>
	<text transform="matrix(0.866 -0.5 0.5 0.866 481.999 435.6875)" font-family="'MyriadPro-Regular'" font-size="36">7</text>
	<text transform="matrix(0.866 -0.5 0.5 0.866 633.542 340.5068)" font-family="'MyriadPro-Regular'" font-size="36">8</text>
	<text transform="matrix(0.866 -0.5 0.5 0.866 800.1855 435.6875)" font-family="'MyriadPro-Regular'" font-size="36">9</text>
	<text transform="matrix(0.866 -0.5 0.5 0.866 952.418 524.3501)" font-family="'MyriadPro-Regular'" font-size="36">10</text>
	<text transform="matrix(0.866 -0.5 0.5 0.866 951.2471 706.772)" font-family="'MyriadPro-Regular'" font-size="36">11</text>
	<text transform="matrix(0.866 -0.5 0.5 0.866 951.2461 889.9043)" font-family="'MyriadPro-Regular'" font-size="36">12</text>
	<text transform="matrix(0.866 -0.5 0.5 0.866 792.8896 986.29)" font-family="'MyriadPro-Regular'" font-size="36">13</text>
	<text transform="matrix(0.866 -0.5 0.5 0.866 633.541 1079.0615)" font-family="'MyriadPro-Regular'" font-size="36">14</text>
	<text transform="matrix(0.866 -0.5 0.5 0.866 474.543 986.29)" font-family="'MyriadPro-Regular'" font-size="36">15</text>
	<text transform="matrix(0.866 -0.5 0.5 0.866 322.8799 885.085)" font-family="'MyriadPro-Regular'" font-size="36">16</text>
	<text transform="matrix(0.866 -0.5 0.5 0.866 315.7822 711.5913)" font-family="'MyriadPro-Regular'" font-size="36">17</text>
	<text transform="matrix(0.866 -0.5 0.5 0.866 321.9395 524.3501)" font-family="'MyriadPro-Regular'" font-size="36">18</text>
	<text transform="matrix(0.866 -0.5 0.5 0.866 315.5703 335.6875)" font-family="'MyriadPro-Regular'" font-size="36">19</text>
	<text transform="matrix(0.866 -0.5 0.5 0.866 481.6289 247.7358)" font-family="'MyriadPro-Regular'" font-size="36">20</text>
	<text transform="matrix(0.866 -0.5 0.5 0.866 642 157.3745)" font-family="'MyriadPro-Regular'" font-size="36">21</text>
	<text transform="matrix(0.866 -0.5 0.5 0.866 799.9736 247.7358)" font-family="'MyriadPro-Regular'" font-size="36">22</text>
	<text transform="matrix(0.866 -0.5 0.5 0.866 959.3242 335.6875)" font-family="'MyriadPro-Regular'" font-size="36">23</text>
	<text transform="matrix(0.866 -0.5 0.5 0.866 1118.4551 435.6875)" font-family="'MyriadPro-Regular'" font-size="36">24</text>
	<text transform="matrix(0.866 -0.5 0.5 0.866 1118.4541 616.8594)" font-family="'MyriadPro-Regular'" font-size="36">25</text>
	<text transform="matrix(0.866 -0.5 0.5 0.866 1118.6299 800.748)" font-family="'MyriadPro-Regular'" font-size="36">26</text>
	<text transform="matrix(0.866 -0.5 0.5 0.866 1118.6299 986.29)" font-family="'MyriadPro-Regular'" font-size="36">27</text>
	<text transform="matrix(0.866 -0.5 0.5 0.866 958.333 1079.0615)" font-family="'MyriadPro-Regular'" font-size="36">28</text>
	<text transform="matrix(0.866 -0.5 0.5 0.866 800.1855 1170.6279)" font-family="'MyriadPro-Regular'" font-size="36">29</text>
	<text transform="matrix(0.866 -0.5 0.5 0.866 643.999 1263.3984)" font-family="'MyriadPro-Regular'" font-size="36">30</text>
	<text transform="matrix(0.866 -0.5 0.5 0.866 481.6289 1164.626)" font-family="'MyriadPro-Regular'" font-size="36">31</text>
	<text transform="matrix(0.866 -0.5 0.5 0.866 315.5693 1071.8682)" font-family="'MyriadPro-Regular'" font-size="36">32</text>
	<text transform="matrix(0.866 -0.5 0.5 0.866 163.3301 979.0615)" font-family="'MyriadPro-Regular'" font-size="36">33</text>
	<text transform="matrix(0.866 -0.5 0.5 0.866 163.3301 800.748)" font-family="'MyriadPro-Regular'" font-size="36">34</text>
	<text transform="matrix(0.866 -0.5 0.5 0.866 156.1982 616.8594)" font-family="'MyriadPro-Regular'" font-size="36">35</text>
	<text transform="matrix(0.866 -0.5 0.5 0.866 163.2842 435.6875)" font-family="'MyriadPro-Regular'" font-size="36">36</text>
</g>
</svg>
